<svg width="24" height="24" viewBox="0 0 24 24" fill="none" xmlns="http://www.w3.org/2000/svg">
<g clip-path="url(#clip0_1134_154)">
<path d="M22.08 0H1.92C0.859613 0 0 0.859613 0 1.92V22.08C0 23.1404 0.859613 24 1.92 24H22.08C23.1404 24 24 23.1404 24 22.08V1.92C24 0.859613 23.1404 0 22.08 0Z" fill="#EDE9DE"/>
<path d="M19.68 6.88008C19.68 5.46621 18.5339 4.32007 17.12 4.32007H14.56V9.44006C14.56 6.61238 12.2677 4.32007 9.44 4.32007C6.61232 4.32007 4.32001 6.61238 4.32001 9.44006H9.44C6.61232 9.44006 4.32001 11.7324 4.32001 14.5601C4.32001 17.3878 6.61232 19.6801 9.44 19.6801V14.5601H12C13.4138 14.5601 14.56 13.4139 14.56 12.0001C14.56 10.5862 13.4138 9.44006 12 9.44006H14.56H17.12C18.5339 9.44006 19.68 8.29392 19.68 6.88008Z" fill="black"/>
</g>
<defs>
<clipPath id="clip0_1134_154">
<rect width="24" height="24" fill="white"/>
</clipPath>
</defs>
</svg>
